HIERARCHY
ROOT Hips
{
	OFFSET 0.000000 0.000000 0.000000
	CHANNELS 6 Xposition Yposition Zposition Zrotation Yrotation Xrotation 
	JOINT LHipJoint
	{
		OFFSET 0.000000 0.000000 0.000000
		CHANNELS 3 Zrotation Yrotation Xrotation
		JOINT LeftUpLeg
		{
			OFFSET 1.363060 -1.794630 0.839290
			CHANNELS 3 Zrotation Yrotation Xrotation
			JOINT LeftLeg
			{
				OFFSET 2.448110 -6.726130 0.000000
				CHANNELS 3 Zrotation Yrotation Xrotation
				JOINT LeftFoot
				{
					OFFSET 2.562200 -7.039590 0.000000
					CHANNELS 3 Zrotation Yrotation Xrotation
					JOINT LeftToeBase
					{
						OFFSET 0.157640 -0.433110 2.322550
						CHANNELS 3 Zrotation Yrotation Xrotation
						End Site
						{
							OFFSET 0.000000 0.000000 0.000000
						}
					}
				}
			}
		}
	}
	JOINT RHipJoint
	{
		OFFSET 0.000000 0.000000 0.000000
		CHANNELS 3 Zrotation Yrotation Xrotation
		JOINT RightUpLeg
		{
			OFFSET -1.305520 -1.794630 0.839290
			CHANNELS 3 Zrotation Yrotation Xrotation
			JOINT RightLeg
			{
				OFFSET -2.542530 -6.985550 0.000000
				CHANNELS 3 Zrotation Yrotation Xrotation
				JOINT RightFoot
				{
					OFFSET -2.568260 -7.056230 0.000000
					CHANNELS 3 Zrotation Yrotation Xrotation
					JOINT RightToeBase
					{
						OFFSET -0.164730 -0.452590 2.363150
						CHANNELS 3 Zrotation Yrotation Xrotation
						End Site
						{
							OFFSET 0.000000 0.000000 0.000000
						}
					}
				}
			}
		}
	}
	JOINT LowerBack
	{
		OFFSET 0.000000 0.000000 0.000000
		CHANNELS 3 Zrotation Yrotation Xrotation
		JOINT Spine
		{
			OFFSET 0.028270 2.035590 -0.193380
			CHANNELS 3 Zrotation Yrotation Xrotation
			JOINT Spine1
			{
				OFFSET 0.056720 2.048850 -0.042750
				CHANNELS 3 Zrotation Yrotation Xrotation
				JOINT Neck
				{
					OFFSET 0.000000 0.000000 0.000000
					CHANNELS 3 Zrotation Yrotation Xrotation
					JOINT Neck1
					{
						OFFSET -0.054170 1.746240 0.172020
						CHANNELS 3 Zrotation Yrotation Xrotation
						JOINT Head
						{
							OFFSET 0.104070 1.761360 -0.123970
							CHANNELS 3 Zrotation Yrotation Xrotation
							End Site
							{
								OFFSET 0.000000 0.000000 0.000000
							}
						}
					}
				}
				JOINT LeftShoulder
				{
					OFFSET 0.000000 0.000000 0.000000
					CHANNELS 3 Zrotation Yrotation Xrotation
					JOINT LeftArm
					{
						OFFSET 3.362410 1.200890 -0.311210
						CHANNELS 3 Zrotation Yrotation Xrotation
						JOINT LeftForeArm
						{
							OFFSET 4.983000 -0.000000 -0.000000
							CHANNELS 3 Zrotation Yrotation Xrotation
							JOINT LeftHand
							{
								OFFSET 3.483560 -0.000000 -0.000000
								CHANNELS 3 Zrotation Yrotation Xrotation
								JOINT LeftFingerBase
								{
									OFFSET 0.000000 0.000000 0.000000
									CHANNELS 3 Zrotation Yrotation Xrotation
									JOINT LeftHandIndex1
									{
										OFFSET 0.715260 -0.000000 -0.000000
										CHANNELS 3 Zrotation Yrotation Xrotation
										End Site
										{
											OFFSET 0.000000 0.000000 0.000000
										}
									}
								}
								JOINT LThumb
								{
									OFFSET 0.000000 0.000000 0.000000
									CHANNELS 3 Zrotation Yrotation Xrotation
									End Site
									{
										OFFSET 0.000000 0.000000 0.000000
									}
								}
							}
						}
					}
				}
				JOINT RightShoulder
				{
					OFFSET 0.000000 0.000000 0.000000
					CHANNELS 3 Zrotation Yrotation Xrotation
					JOINT RightArm
					{
						OFFSET -3.136600 1.374050 -0.404650
						CHANNELS 3 Zrotation Yrotation Xrotation
						JOINT RightForeArm
						{
							OFFSET -5.241900 -0.000000 -0.000000
							CHANNELS 3 Zrotation Yrotation Xrotation
							JOINT RightHand
							{
								OFFSET -3.444170 -0.000000 -0.000000
								CHANNELS 3 Zrotation Yrotation Xrotation
								JOINT RightFingerBase
								{
									OFFSET 0.000000 0.000000 0.000000
									CHANNELS 3 Zrotation Yrotation Xrotation
									JOINT RightHandIndex1
									{
										OFFSET -0.622530 -0.000000 -0.000000
										CHANNELS 3 Zrotation Yrotation Xrotation
										End Site
										{
											OFFSET 0.000000 0.000000 0.000000
										}
									}
								}
								JOINT RThumb
								{
									OFFSET 0.000000 0.000000 0.000000
									CHANNELS 3 Zrotation Yrotation Xrotation
									End Site
									{
										OFFSET 0.000000 0.000000 0.000000
									}
								}
							}
						}
					}
				}
			}
		}
	}
}
MOTION
Frames: 10
Frame Time: 0.008333
-9.950156 16.717518 -2.805066 10.666511 84.165737 20.924332 -9.528042 0.538731 2.314861 -16.392787 3.018844 -40.506910 -2.252508 0.721050 28.603456 1.486216 7.056800 -7.486992 0.210200 0.000000 -11.888699 11.116982 -4.837251 -0.261185 -0.423517 -11.122704 -3.000050 0.519216 -3.052206 39.506993 0.480242 20.961029 19.714377 9.168000 0.000000 -84.720800 -9.306070 2.088815 -3.981235 -2.369649 2.586847 -3.895344 -4.198702 2.428830 0.016882 6.377523 -3.580908 -8.632264 -1.480021 -0.104867 -0.260616 0.000000 0.000000 0.000000 -7.403163 20.851062 2.570188 -61.860846 30.650621 -11.607667 -4.956571 -4.458443 -0.011764 3.007842 6.211603 0.172486 -0.139115 -0.078818 -0.000000 0.000000 0.000000 0.000000 0.000000 0.000000 0.000000 3.135660 3.587395 -0.029173 33.839530 42.545443 14.545471 0.273187 74.221150 -0.013055 -0.700187 6.903545 -0.041147 -0.062041 -0.485910 0.000000 0.000000 0.000000 0.000000 0.000000 0.000000 0.000000 
-9.786471 16.661409 -2.809262 13.113057 83.832067 23.071305 -9.461726 0.577054 2.007482 -17.133921 3.874086 -40.899448 -2.188429 0.915244 31.056633 1.498993 7.069105 -8.040475 0.104100 0.000000 -11.171100 11.383445 -4.805528 -0.267404 -1.435091 -11.355583 -4.264866 0.295824 -3.234845 42.775540 0.326858 21.026852 20.861588 9.665200 -0.000001 -82.311100 -9.617450 1.966245 -3.739069 -2.443331 2.488102 -3.862981 -4.287650 2.337138 -0.025243 6.611502 -3.357912 -8.622614 -1.562670 -0.110902 -0.266720 0.000000 0.000000 0.000000 -7.412493 20.583530 2.665893 -62.537523 29.658399 -11.251848 -4.928015 -4.664476 -0.012024 2.631154 6.305197 0.153685 -0.133428 -0.075762 -0.000000 0.000000 0.000000 0.000000 0.000000 0.000000 0.000000 3.632805 3.892533 0.043546 35.422623 42.066674 15.124496 0.310555 73.464119 -0.011739 -0.659354 6.778271 -0.038074 -0.056810 -0.479991 0.000000 0.000000 0.000000 0.000000 0.000000 0.000000 0.000000 
-9.628501 16.601681 -2.813797 15.379580 83.492426 25.019099 -9.379662 0.616085 1.701513 -17.846595 4.652248 -41.209594 -2.127385 1.095510 33.459274 1.520195 7.071507 -8.830509 -0.039700 0.000000 -10.647300 11.644462 -4.737876 -0.307428 -2.409762 -11.565897 -5.549936 0.064507 -3.426089 46.143517 0.169355 20.449235 21.755859 9.778000 0.000000 -79.625900 -9.911017 1.837291 -3.440595 -2.512810 2.382158 -3.824746 -4.380864 2.238802 -0.093547 6.832396 -3.112639 -8.601363 -1.655830 -0.117836 -0.270917 0.000000 0.000000 0.000000 -7.480256 20.231810 2.765094 -63.173849 28.613086 -10.767975 -4.890829 -4.915989 -0.011907 2.311859 6.317742 0.135689 -0.127217 -0.072561 -0.000000 0.000000 0.000000 0.000000 0.000000 0.000000 0.000000 4.154054 4.228414 0.123136 37.031113 41.542293 15.634574 0.349654 72.663416 -0.010740 -0.659496 6.681915 -0.037795 -0.050876 -0.474651 0.000000 0.000000 0.000000 0.000000 0.000000 0.000000 0.000000 
-9.475875 16.539173 -2.819092 17.516438 83.154820 26.816783 -9.284652 0.656316 1.401618 -18.525385 5.333745 -41.400810 -2.072788 1.258631 35.763670 1.551683 7.076199 -9.847116 -0.219399 -0.000000 -10.314000 11.900058 -4.635502 -0.383693 -3.351415 -11.768521 -6.841149 -0.176451 -3.628479 49.576645 0.006402 19.181147 22.342917 9.446600 0.000000 -76.899300 -10.185330 1.701416 -3.087390 -2.578266 2.268229 -3.780857 -4.480094 2.132890 -0.187344 7.044996 -2.845669 -8.564156 -1.760888 -0.125836 -0.272045 0.000000 0.000000 0.000000 -7.608105 19.795244 2.865571 -63.749446 27.509541 -10.115073 -4.844170 -5.200581 -0.011434 2.066948 6.257409 0.120500 -0.120396 -0.069246 -0.000000 0.000000 0.000000 0.000000 0.000000 0.000000 0.000000 4.712052 4.591140 0.209720 38.649343 40.965183 16.071852 0.390517 71.825981 -0.010058 -0.698574 6.631910 -0.040216 -0.044404 -0.470058 -0.000000 0.000000 0.000000 0.000000 0.000000 0.000000 0.000000 
-9.328110 16.474890 -2.825615 19.534055 82.823787 28.474801 -9.180983 0.698577 1.111123 -19.164577 5.910293 -41.449490 -2.026800 1.403497 37.931653 1.595280 7.097526 -11.062503 -0.431600 -0.000000 -10.159600 12.148581 -4.499631 -0.495055 -4.257990 -11.967118 -8.125570 -0.428151 -3.842632 53.036189 -0.165154 17.227556 22.565118 8.659500 -0.000000 -74.271600 -10.434756 1.560058 -2.684237 -2.639074 2.147194 -3.732314 -4.587067 2.020023 -0.306127 7.252843 -2.556283 -8.505670 -1.878808 -0.135052 -0.268572 0.000000 0.000000 0.000000 -7.796473 19.271375 2.965202 -64.247405 26.347750 -9.261846 -4.787892 -5.507176 -0.010654 1.909476 6.138316 0.109218 -0.112912 -0.065800 -0.000000 0.000000 0.000000 0.000000 0.000000 0.000000 0.000000 5.315507 4.978069 0.303043 40.267159 40.322857 16.432244 0.433262 70.957183 -0.009655 -0.769719 6.641607 -0.045038 -0.037622 -0.466263 -0.000000 0.000000 0.000000 0.000000 0.000000 0.000000 0.000000 
-9.184522 16.409991 -2.833816 21.428963 82.501373 29.992559 -9.073196 0.743560 0.832990 -19.759959 6.379176 -41.344082 -1.990034 1.530278 39.933747 1.652790 7.152753 -12.432798 -0.672100 0.000000 -10.165099 12.387915 -4.332422 -0.637450 -5.126075 -12.158835 -9.394594 -0.690400 -4.067959 56.482238 -0.348729 14.654289 22.363548 7.463000 0.000000 -71.741800 -10.653180 1.415795 -2.239640 -2.694512 2.021063 -3.680595 -4.703129 1.901875 -0.447919 7.459076 -2.245948 -8.421668 -2.009879 -0.145562 -0.259193 0.000000 0.000000 0.000000 -8.039973 18.661085 3.062363 -64.655565 25.123921 -8.188194 -4.722289 -5.822101 -0.009633 1.848863 5.977849 0.102640 -0.104755 -0.062140 -0.000000 0.000000 0.000000 0.000000 0.000000 0.000000 0.000000 5.970128 5.383894 0.402015 41.877850 39.602428 16.711681 0.478080 70.059034 -0.009483 -0.866054 6.720539 -0.051962 -0.030749 -0.463233 -0.000000 0.000000 0.000000 0.000000 0.000000 0.000000 0.000000 
-9.044445 16.345668 -2.844096 23.184502 82.188368 31.358275 -8.966201 0.791557 0.569494 -20.309018 6.744135 -41.085409 -1.961784 1.640199 41.749579 1.725512 7.259448 -13.903275 -0.936700 0.000000 -10.301800 12.614997 -4.137435 -0.804457 -5.949043 -12.334668 -10.644675 -0.961720 -4.302936 59.874456 -0.546305 11.586241 21.686976 5.960200 -0.000000 -69.195200 -10.833698 1.272400 -1.764813 -2.743590 1.893039 -3.628332 -4.829123 1.781192 -0.612893 7.664095 -1.912481 -8.306114 -2.153477 -0.157393 -0.241990 0.000000 0.000000 0.000000 -8.330904 17.957031 3.156313 -64.968282 23.847248 -6.894875 -4.648697 -6.139195 -0.008450 1.888453 5.796135 0.101167 -0.095989 -0.058136 -0.000000 0.000000 0.000000 0.000000 0.000000 0.000000 0.000000 6.673082 5.806583 0.504933 43.484380 38.779741 16.899896 0.525317 69.131452 -0.009467 -0.976852 6.873137 -0.060490 -0.024054 -0.460838 -0.000000 0.000000 0.000000 0.000000 0.000000 0.000000 0.000000 
-8.907097 16.283126 -2.856522 24.808967 81.885331 32.588085 -8.861982 0.842772 0.322361 -20.816241 7.009247 -40.683070 -1.940254 1.734694 43.366375 1.814394 7.436164 -15.413287 -1.222100 -0.000001 -10.530900 12.829278 -3.919412 -0.988484 -6.725063 -12.485954 -11.878075 -1.239337 -4.545902 63.173010 -0.757029 8.201972 20.505279 4.300400 -0.000001 -66.453401 -10.976446 1.131774 -1.271972 -2.786750 1.765002 -3.574466 -4.964595 1.659717 -0.785917 7.874740 -1.580140 -8.169084 -2.308190 -0.170264 -0.219674 0.000000 0.000000 0.000000 -8.640262 17.203170 3.245837 -65.183620 22.457006 -5.359093 -4.566335 -6.416001 -0.007174 2.037127 5.609339 0.104699 -0.086637 -0.053520 -0.000000 0.000000 0.000000 0.000000 0.000000 0.000000 0.000000 7.433443 6.216095 0.607708 45.070297 37.878544 17.002764 0.574660 68.157725 -0.009658 -1.112080 7.102166 -0.071722 -0.017509 -0.458913 -0.000000 0.000000 0.000000 0.000000 0.000000 0.000000 0.000000 
-8.771861 16.223609 -2.871231 26.271997 81.591811 33.660198 -8.765363 0.896668 0.092869 -21.280099 7.187566 -40.158450 -1.923085 1.816136 44.782360 1.918437 7.692421 -16.904124 -1.525000 0.000000 -10.804900 13.026643 -3.685000 -1.179854 -7.440812 -12.596512 -13.099953 -1.519729 -4.793212 66.336728 -0.976781 4.705926 18.825774 2.652400 -0.000001 -63.365100 -11.073773 0.999536 -0.776051 -2.822526 1.642104 -3.523815 -5.108953 1.541984 -0.972879 8.084516 -1.238276 -8.001412 -2.471302 -0.184080 -0.189238 0.000000 0.000000 0.000000 -8.961298 16.373896 3.331335 -65.307358 20.991506 -3.629496 -4.478687 -6.669961 -0.005908 2.285548 5.436818 0.112934 -0.076943 -0.048135 -0.000000 0.000000 0.000000 0.000000 0.000000 0.000000 0.000000 8.227721 6.618788 0.707439 46.661521 36.851936 16.994003 0.626615 67.133977 -0.009945 -1.255967 7.401423 -0.084761 -0.011437 -0.457161 -0.000000 0.000000 0.000000 0.000000 0.000000 0.000000 0.000000 
-8.638097 16.168199 -2.888055 27.567276 81.308305 34.579395 -8.678373 0.952695 -0.118382 -21.704517 7.291948 -39.538414 -1.907984 1.886617 46.001582 2.035705 8.032654 -18.323469 -1.841800 0.000000 -11.074899 13.205353 -3.441206 -1.368962 -8.086676 -12.653722 -14.320042 -1.798231 -5.040591 69.327142 -1.197822 1.308349 16.694707 1.176200 0.000000 -59.826401 -11.125123 0.878168 -0.291004 -2.850886 1.526925 -3.475776 -5.260190 1.430454 -1.159692 8.295488 -0.911497 -7.815829 -2.639576 -0.198378 -0.153984 0.000000 0.000000 0.000000 -9.266805 15.511594 3.411184 -65.346231 19.398858 -1.719054 -4.386212 -6.874431 -0.004727 2.634039 5.288922 0.125573 -0.067088 -0.041724 -0.000000 0.000000 0.000000 0.000000 0.000000 0.000000 0.000000 9.050459 6.984275 0.799021 48.255087 35.722049 16.871802 0.680774 66.034616 -0.010392 -1.422195 7.765912 -0.101106 -0.005723 -0.455279 -0.000000 0.000000 0.000000 0.000000 0.000000 0.000000 0.000000 
